<?xml version="1.0" encoding="UTF-8" standalone="no"?>
<!-- Created with Inkscape (http://www.inkscape.org/) -->

<svg
   xmlns:dc="http://purl.org/dc/elements/1.1/"
   xmlns:cc="http://creativecommons.org/ns#"
   xmlns:rdf="http://www.w3.org/1999/02/22-rdf-syntax-ns#"
   xmlns:svg="http://www.w3.org/2000/svg"
   xmlns="http://www.w3.org/2000/svg"
   xmlns:xlink="http://www.w3.org/1999/xlink"
   xmlns:sodipodi="http://sodipodi.sourceforge.net/DTD/sodipodi-0.dtd"
   xmlns:inkscape="http://www.inkscape.org/namespaces/inkscape"
   id="svg2"
   sodipodi:docname="logo.svg"
   viewBox="0 0 60.000001 60.000001"
   sodipodi:version="0.32"
   version="1.0"
   inkscape:output_extension="org.inkscape.output.svg.inkscape"
   inkscape:version="0.92.1 r15371"
   width="64"
   height="64">
  <defs
     id="defs4">
    <linearGradient
       id="linearGradient3305"
       y2="500.37"
       gradientUnits="userSpaceOnUse"
       x2="444.54001"
       y1="500.37"
       x1="364.95999"
       inkscape:collect="always"
       gradientTransform="matrix(0.29999131,0,0,0.29999131,194.60242,388.05936)">
      <stop
         id="stop3301"
         style="stop-color:#ff0000"
         offset="0" />
      <stop
         id="stop3339"
         style="stop-color:#f30000"
         offset=".88889" />
      <stop
         id="stop3303"
         style="stop-color:#e70000"
         offset="1" />
    </linearGradient>
    <radialGradient
       id="radialGradient3363"
       gradientUnits="userSpaceOnUse"
       cy="100"
       cx="100"
       r="100"
       inkscape:collect="always"
       gradientTransform="matrix(0.29999131,0,0,0.29999131,278,494.36428)">
      <stop
         id="stop3359"
         style="stop-color:#ffffff;stop-opacity:0"
         offset="0" />
      <stop
         id="stop3365"
         style="stop-color:#ffffff;stop-opacity:0"
         offset=".80556" />
      <stop
         id="stop3361"
         style="stop-color:#b00000;stop-opacity:.73451"
         offset="1" />
    </radialGradient>
  </defs>
  <sodipodi:namedview
     id="base"
     inkscape:zoom="2.8284271"
     borderopacity="1.0"
     inkscape:current-layer="layer1"
     inkscape:cx="53.082942"
     inkscape:cy="10.912187"
     inkscape:object-paths="true"
     showgrid="true"
     inkscape:guide-bbox="true"
     inkscape:snap-global="true"
     inkscape:document-units="px"
     bordercolor="#666666"
     inkscape:window-x="95"
     guidetolerance="10"
     objecttolerance="10"
     inkscape:object-nodes="true"
     inkscape:window-y="33"
     inkscape:window-width="1825"
     inkscape:pageopacity="0.0"
     inkscape:pageshadow="2"
     pagecolor="#ffffff"
     gridtolerance="10"
     showguides="true"
     inkscape:window-height="1047"
     inkscape:window-maximized="1">
    <inkscape:grid
       id="grid3170"
       spacingx="10"
       enabled="true"
       spacingy="10"
       visible="false"
       type="xygrid"
       empspacing="4"
       originx="0"
       originy="0" />
  </sodipodi:namedview>
  <g
     id="layer1"
     inkscape:label="Layer 1"
     inkscape:groupmode="layer"
     transform="translate(-278,-494.36)">
    <g
       id="g4525">
      <path
         inkscape:connector-curvature="0"
         sodipodi:nodetypes="cssccssc"
         inkscape:transform-center-y="13.979829"
         inkscape:transform-center-x="-8.0246878"
         d="m 307.99913,524.18642 c 0,0 -4.12488,2.55593 -3.69889,7.13679 0.42599,4.57487 8.01577,11.85266 10.59869,15.21856 1.52396,1.98594 2.22294,4.04688 2.55293,5.41784 3.87588,-1.32896 7.37978,-3.4619 10.3257,-6.18582 -1.24797,-1.19396 -3.35091,-3.13191 -5.00086,-4.21787 -2.45393,-1.61696 -10.08271,-3.5219 -14.33358,-7.53879 -4.13388,-3.90588 -0.44399,-9.83071 -0.44399,-9.83071 z"
         style="fill:url(#linearGradient3305);fill-rule:evenodd;stroke-width:0.29999131"
         id="path3168" />
      <circle
         r="29.166054"
         cy="524.36426"
         cx="308.00064"
         style="fill:#ffffff;stroke:#ff0000;stroke-width:1.6666317;stroke-linejoin:round"
         id="path3223" />
      <path
         inkscape:connector-curvature="0"
         inkscape:transform-center-x="-8.0246878"
         inkscape:transform-center-y="13.979828"
         sodipodi:nodetypes="cssccssc"
         d="m 307.99913,524.09342 c 0,0 -4.12488,2.64893 -3.69889,7.22979 0.42599,4.57487 8.01577,11.85266 10.59869,15.21856 1.52396,1.98594 2.22294,4.04688 2.55293,5.41784 3.87588,-1.32896 7.37978,-3.4619 10.3257,-6.18582 -1.24797,-1.19396 -3.35091,-3.13191 -5.00086,-4.21787 -2.45393,-1.61696 -10.08271,-3.5219 -14.33358,-7.53879 -4.13388,-3.90588 -0.44399,-9.92371 -0.44399,-9.92371 z"
         style="fill:#ff0000;fill-rule:evenodd;stroke-width:0.29999131"
         id="use3230" />
      <path
         inkscape:connector-curvature="0"
         d="m 305.95259,554.23955 c -0.33329,-0.033 -1.35596,-0.168 -2.27273,-0.29699 -11.87846,-1.69195 -21.77067,-10.62869 -24.68209,-22.30436 -1.20668,-4.83586 -1.16013,-10.45469 0.12495,-15.07186 1.43504,-5.15625 4.07028,-9.67862 7.76617,-13.32741 1.80235,-1.77895 2.70232,-2.51903 4.62587,-3.80299 7.87507,-5.25675 17.93348,-6.42132 26.86122,-3.11001 7.16079,2.65522 13.03162,7.96297 16.47852,14.89697 3.5339,7.10679 4.00489,15.80144 1.26297,23.29522 -1.54496,4.21788 -3.82189,7.79077 -6.9868,10.95568 -4.52387,4.52387 -10.10071,7.37979 -16.43653,8.41776 -1.68595,0.27599 -5.50424,0.47398 -6.7414,0.34799 z m 6.20742,-1.82095 c 1.41896,-0.20699 3.3059,-0.62698 4.44887,-0.98997 0.61798,-0.19799 0.59698,-0.35099 -0.33899,-2.32493 -0.77098,-1.62896 -1.45196,-2.54993 -4.52687,-6.09883 -2.89491,-3.3419 -4.14648,-4.90185 -5.25975,-6.55481 -1.80084,-2.67592 -2.34263,-4.17288 -2.24543,-6.20682 0.0825,-1.72495 0.72658,-3.14091 2.09034,-4.59886 0.52078,-0.55799 0.90357,-1.01097 0.85047,-1.01097 -0.31019,0 -2.24213,1.00797 -2.94171,1.53895 -1.15227,0.86998 -1.62025,1.41596 -2.18694,2.54993 -0.46948,0.94197 -0.49138,1.06497 -0.48838,2.72692 0.005,2.74792 0.72148,5.34284 2.99721,10.85068 1.76515,4.27488 1.95234,5.01286 2.16564,8.54376 0.0591,0.97797 0.17879,1.79694 0.27269,1.86294 0.22139,0.159 3.2639,-0.009 5.16285,-0.28799 z m -16.24783,-3.90289 c 0.89068,-2.10593 0.99207,-2.75992 1.55966,-10.0947 0.36659,-4.73387 0.69388,-6.8668 1.38476,-9.01474 0.55828,-1.73995 0.88377,-2.30394 1.92744,-3.3419 1.40036,-1.39196 3.02001,-2.02645 5.23815,-2.05075 l 1.14266,-0.0126 -0.78807,-0.37288 c -1.92355,-0.90988 -4.57127,-1.04067 -6.17832,-0.3048 -1.71085,0.78298 -3.6545,3.16101 -5.34525,6.53592 -0.41729,0.83397 -1.37336,2.98191 -2.12484,4.77586 -0.75118,1.79394 -1.52185,3.53089 -1.71265,3.86388 -0.46798,0.81298 -2.09004,2.90092 -3.11301,4.00789 l -0.83367,0.89997 0.32159,0.43499 c 0.40169,0.54298 2.18483,2.15394 3.485,3.14691 1.31606,1.00497 4.09758,2.66392 4.37387,2.60992 0.1218,-0.021 0.41999,-0.50998 0.66268,-1.08297 z m 32.72305,-4.67986 c 0.64798,-0.68698 1.63196,-1.87195 2.18694,-2.63092 1.13097,-1.54796 2.66092,-4.13388 2.58292,-4.37088 -0.078,-0.23099 -2.33993,-1.10397 -3.52789,-1.36196 -0.57599,-0.12599 -3.22791,-0.39899 -5.89483,-0.60898 -5.94583,-0.46799 -8.03677,-0.74698 -10.3797,-1.39496 -3.70789,-1.02297 -5.72774,-3.5849 -5.76913,-7.31379 l -0.0126,-1.14296 -0.37259,0.78597 c -0.91108,1.92595 -1.04697,4.55987 -0.31709,6.15282 1.11356,2.43293 4.79446,4.85986 11.54126,7.60778 3.72589,1.51496 5.08185,2.35194 7.58378,4.67087 0.49799,0.46499 0.97497,0.84897 1.05597,0.85197 0.081,0.003 0.67798,-0.55498 1.32296,-1.24496 z m -45.70367,-11.31867 c 1.76185,-0.81598 2.40113,-1.28696 6.30851,-4.64087 5.14995,-4.42397 7.36989,-6.02862 9.68912,-7.00539 0.84718,-0.35669 1.16337,-0.40559 2.62973,-0.40559 1.60225,0 1.71085,0.0213 2.81332,0.54778 0.73287,0.35009 1.51225,0.88948 2.15933,1.49486 0.55679,0.52078 1.01217,0.90057 1.01217,0.84387 0,-0.0567 -0.22889,-0.59308 -0.50878,-1.19186 -0.95097,-2.03394 -2.28414,-3.4343 -3.88519,-4.08078 -0.69508,-0.2808 -1.10997,-0.33449 -2.50013,-0.32399 -2.71042,0.0204 -4.90875,0.62488 -10.53029,2.89701 -1.95864,0.79138 -3.86779,1.52816 -4.24278,1.63705 -0.97737,0.2844 -2.54692,0.49979 -4.50767,0.61859 l -1.70449,0.10319 v 1.89235 c 0,2.42993 0.48278,5.51684 1.23279,7.87777 0.18611,0.58798 0.20471,0.58498 2.03436,-0.26399 z m 35.82496,-2.33093 c 2.00394,-0.48299 3.98088,-1.17297 7.38878,-2.57993 4.17588,-1.72495 4.92886,-1.91094 8.63375,-2.15394 l 1.55396,-0.10199 -0.003,-1.76035 c -0.006,-2.31804 -0.67198,-6.31392 -1.35896,-8.11987 l -0.147,-0.38219 -0.76197,0.29999 c -2.24994,0.88768 -3.19791,1.54766 -7.2358,5.04436 -3.3419,2.89401 -4.90485,4.14708 -6.55781,5.26005 -2.67292,1.79994 -4.16987,2.34293 -6.20382,2.24393 -1.73395,-0.081 -3.1409,-0.72298 -4.62286,-2.10894 -1.13997,-1.06497 -1.18197,-0.97797 -0.34499,0.69898 1.04097,2.07894 2.69092,3.5609 4.46687,4.01089 0.93597,0.23699 3.4499,0.069 5.19285,-0.35099 z m -2.98791,-5.13886 c 2.41493,-1.11206 4.59886,-4.36517 7.32878,-10.91728 1.87795,-4.50947 2.26794,-5.17095 4.66187,-7.89187 l 1.05297,-1.19667 -1.20597,-1.16006 c -2.06394,-1.98744 -6.37181,-4.94896 -7.01679,-4.82176 -0.276,0.0549 -1.01397,1.92624 -1.30497,3.3074 -0.12599,0.60238 -0.29999,1.92085 -0.38399,2.93002 -0.084,1.00917 -0.28499,3.437 -0.44698,5.39534 -0.55199,6.73871 -1.31996,9.61442 -3.04491,11.44077 -1.38296,1.46066 -2.65793,2.00994 -5.06086,2.17704 l -1.51795,0.10409 0.60598,0.27299 c 2.11494,0.95098 4.72786,1.09797 6.33282,0.35999 z m -5.42085,-1.96974 c 1.74595,-0.87357 2.96092,-2.05524 3.6929,-3.59719 0.35699,-0.75028 0.39598,-1.00647 0.39298,-2.57573 -0.003,-2.74732 -0.71998,-5.34134 -2.99691,-10.85009 -1.74895,-4.23197 -1.93794,-4.97535 -2.16594,-8.50625 l -0.099,-1.55314 h -1.56716 c -1.98534,0 -4.50137,0.34343 -6.7126,0.91629 -0.94978,0.24605 -1.75105,0.44735 -1.78045,0.44735 -0.30899,0 0.76378,2.45594 1.64305,3.76159 0.29189,0.43319 1.88755,2.36783 3.5459,4.29917 4.42127,5.14995 6.02622,7.36959 7.00419,9.68912 0.35699,0.84688 0.40499,1.16337 0.40499,2.62943 0,1.60225 -0.021,1.71115 -0.54598,2.81361 -0.35399,0.74038 -0.89098,1.51316 -1.51796,2.18124 -1.06497,1.13967 -0.97797,1.18287 0.70198,0.34469 z m -1.49995,-1.24856 c 0.35399,-1.02447 0.41998,-1.47026 0.42898,-2.87872 0.009,-1.50656 -0.03,-1.75105 -0.40198,-2.54273 -1.14357,-2.44162 -4.66217,-4.77436 -11.25598,-7.46318 -4.02348,-1.64065 -4.63336,-1.99794 -7.18359,-4.20888 l -1.57705,-1.36736 -1.23057,1.27587 c -0.67678,0.70168 -1.66915,1.85334 -2.20554,2.55952 -1.06556,1.40306 -2.72782,4.04988 -2.72782,4.34328 0,0.21719 2.01745,1.02177 3.37041,1.34456 0.52138,0.12419 3.12981,0.39629 5.79643,0.60448 5.34644,0.41759 7.53308,0.68098 9.46982,1.14117 2.80522,0.66658 4.26948,1.49605 5.49104,3.11001 0.80128,1.05867 1.18887,2.27933 1.28787,4.05378 0.045,0.81777 0.13499,1.43126 0.20099,1.36376 0.066,-0.0678 0.30899,-0.66898 0.53699,-1.33556 z"
         style="opacity:0;stroke-width:1.19996524"
         id="path3291" />
      <path
         inkscape:connector-curvature="0"
         d="m 305.95259,554.23955 c -0.33329,-0.033 -1.35596,-0.168 -2.27273,-0.29699 -11.87846,-1.69195 -21.77067,-10.62869 -24.68209,-22.30436 -1.20668,-4.83586 -1.16013,-10.45469 0.12495,-15.07186 1.43504,-5.15625 4.07028,-9.67862 7.76617,-13.32741 1.80235,-1.77895 2.70232,-2.51903 4.62587,-3.80299 7.87507,-5.25675 17.93348,-6.42132 26.86122,-3.11001 7.16079,2.65522 13.03162,7.96297 16.47852,14.89697 3.5339,7.10679 4.00489,15.80144 1.26297,23.29522 -1.54496,4.21788 -3.82189,7.79077 -6.9868,10.95568 -4.52387,4.52387 -10.10071,7.37979 -16.43653,8.41776 -1.68595,0.27599 -5.50424,0.47398 -6.7414,0.34799 z m 6.20742,-1.82095 c 1.41896,-0.20699 3.3059,-0.62698 4.44887,-0.98997 0.61798,-0.19799 0.59698,-0.35099 -0.33899,-2.32493 -0.77098,-1.62896 -1.45196,-2.54993 -4.52687,-6.09883 -2.89491,-3.3419 -4.14648,-4.90185 -5.25975,-6.55481 -1.80084,-2.67592 -2.34263,-4.17288 -2.24543,-6.20682 0.0825,-1.72495 0.72658,-3.14091 2.09034,-4.59886 0.52078,-0.55799 0.90357,-1.01097 0.85047,-1.01097 -0.31019,0 -2.24213,1.00797 -2.94171,1.53895 -1.15227,0.86998 -1.62025,1.41596 -2.18694,2.54993 -0.46948,0.94197 -0.49138,1.06497 -0.48838,2.72692 0.005,2.74792 0.72148,5.34284 2.99721,10.85068 1.76515,4.27488 1.95234,5.01286 2.16564,8.54376 0.0591,0.97797 0.17879,1.79694 0.27269,1.86294 0.22139,0.159 3.2639,-0.009 5.16285,-0.28799 z m -16.24783,-3.90289 c 0.89068,-2.10593 0.99207,-2.75992 1.55966,-10.0947 0.36659,-4.73387 0.69388,-6.8668 1.38476,-9.01474 0.55828,-1.73995 0.88377,-2.30394 1.92744,-3.3419 1.40036,-1.39196 3.02001,-2.02645 5.23815,-2.05075 l 1.14266,-0.0126 -0.78807,-0.37288 c -1.92355,-0.90988 -4.57127,-1.04067 -6.17832,-0.3048 -1.71085,0.78298 -3.6545,3.16101 -5.34525,6.53592 -0.41729,0.83397 -1.37336,2.98191 -2.12484,4.77586 -0.75118,1.79394 -1.52185,3.53089 -1.71265,3.86388 -0.46798,0.81298 -2.09004,2.90092 -3.11301,4.00789 l -0.83367,0.89997 0.32159,0.43499 c 0.40169,0.54298 2.18483,2.15394 3.485,3.14691 1.31606,1.00497 4.09758,2.66392 4.37387,2.60992 0.1218,-0.021 0.41999,-0.50998 0.66268,-1.08297 z m 32.72305,-4.67986 c 0.64798,-0.68698 1.63196,-1.87195 2.18694,-2.63092 1.13097,-1.54796 2.66092,-4.13388 2.58292,-4.37088 -0.078,-0.23099 -2.33993,-1.10397 -3.52789,-1.36196 -0.57599,-0.12599 -3.22791,-0.39899 -5.89483,-0.60898 -5.94583,-0.46799 -8.03677,-0.74698 -10.3797,-1.39496 -3.70789,-1.02297 -5.72774,-3.5849 -5.76913,-7.31379 l -0.0126,-1.14296 -0.37259,0.78597 c -0.91108,1.92595 -1.04697,4.55987 -0.31709,6.15282 1.11356,2.43293 4.79446,4.85986 11.54126,7.60778 3.72589,1.51496 5.08185,2.35194 7.58378,4.67087 0.49799,0.46499 0.97497,0.84897 1.05597,0.85197 0.081,0.003 0.67798,-0.55498 1.32296,-1.24496 z m -45.70367,-11.31867 c 1.76185,-0.81598 2.40113,-1.28696 6.30851,-4.64087 5.14995,-4.42397 7.36989,-6.02862 9.68912,-7.00539 0.84718,-0.35669 1.16337,-0.40559 2.62973,-0.40559 1.60225,0 1.71085,0.0213 2.81332,0.54778 0.73287,0.35009 1.51225,0.88948 2.15933,1.49486 0.55679,0.52078 1.01217,0.90057 1.01217,0.84387 0,-0.0567 -0.22889,-0.59308 -0.50878,-1.19186 -0.95097,-2.03394 -2.28414,-3.4343 -3.88519,-4.08078 -0.69508,-0.2808 -1.10997,-0.33449 -2.50013,-0.32399 -2.71042,0.0204 -4.90875,0.62488 -10.53029,2.89701 -1.95864,0.79138 -3.86779,1.52816 -4.24278,1.63705 -0.97737,0.2844 -2.54692,0.49979 -4.50767,0.61859 l -1.70449,0.10319 v 1.89235 c 0,2.42993 0.48278,5.51684 1.23279,7.87777 0.18611,0.58798 0.20471,0.58498 2.03436,-0.26399 z m 35.82496,-2.33093 c 2.00394,-0.48299 3.98088,-1.17297 7.38878,-2.57993 4.17588,-1.72495 4.92886,-1.91094 8.63375,-2.15394 l 1.55396,-0.10199 -0.003,-1.76035 c -0.006,-2.31804 -0.67198,-6.31392 -1.35896,-8.11987 l -0.147,-0.38219 -0.76197,0.29999 c -2.24994,0.88768 -3.19791,1.54766 -7.2358,5.04436 -3.3419,2.89401 -4.90485,4.14708 -6.55781,5.26005 -2.67292,1.79994 -4.16987,2.34293 -6.20382,2.24393 -1.73395,-0.081 -3.1409,-0.72298 -4.62286,-2.10894 -1.13997,-1.06497 -1.18197,-0.97797 -0.34499,0.69898 1.04097,2.07894 2.69092,3.5609 4.46687,4.01089 0.93597,0.23699 3.4499,0.069 5.19285,-0.35099 z m -2.98791,-5.13886 c 2.41493,-1.11206 4.59886,-4.36517 7.32878,-10.91728 1.87795,-4.50947 2.26794,-5.17095 4.66187,-7.89187 l 1.05297,-1.19667 -1.20597,-1.16006 c -2.06394,-1.98744 -6.37181,-4.94896 -7.01679,-4.82176 -0.276,0.0549 -1.01397,1.92624 -1.30497,3.3074 -0.12599,0.60238 -0.29999,1.92085 -0.38399,2.93002 -0.084,1.00917 -0.28499,3.437 -0.44698,5.39534 -0.55199,6.73871 -1.31996,9.61442 -3.04491,11.44077 -1.38296,1.46066 -2.65793,2.00994 -5.06086,2.17704 l -1.51795,0.10409 0.60598,0.27299 c 2.11494,0.95098 4.72786,1.09797 6.33282,0.35999 z m -5.42085,-1.96974 c 1.74595,-0.87357 2.96092,-2.05524 3.6929,-3.59719 0.35699,-0.75028 0.39598,-1.00647 0.39298,-2.57573 -0.003,-2.74732 -0.71998,-5.34134 -2.99691,-10.85009 -1.74895,-4.23197 -1.93794,-4.97535 -2.16594,-8.50625 l -0.099,-1.55314 h -1.56716 c -1.98534,0 -4.50137,0.34343 -6.7126,0.91629 -0.94978,0.24605 -1.75105,0.44735 -1.78045,0.44735 -0.30899,0 0.76378,2.45594 1.64305,3.76159 0.29189,0.43319 1.88755,2.36783 3.5459,4.29917 4.42127,5.14995 6.02622,7.36959 7.00419,9.68912 0.35699,0.84688 0.40499,1.16337 0.40499,2.62943 0,1.60225 -0.021,1.71115 -0.54598,2.81361 -0.35399,0.74038 -0.89098,1.51316 -1.51796,2.18124 -1.06497,1.13967 -0.97797,1.18287 0.70198,0.34469 z m -1.49995,-1.24856 c 0.35399,-1.02447 0.41998,-1.47026 0.42898,-2.87872 0.009,-1.50656 -0.03,-1.75105 -0.40198,-2.54273 -1.14357,-2.44162 -4.66217,-4.77436 -11.25598,-7.46318 -4.02348,-1.64065 -4.63336,-1.99794 -7.18359,-4.20888 l -1.57705,-1.36736 -1.23057,1.27587 c -0.67678,0.70168 -1.66915,1.85334 -2.20554,2.55952 -1.06556,1.40306 -2.72782,4.04988 -2.72782,4.34328 0,0.21719 2.01745,1.02177 3.37041,1.34456 0.52138,0.12419 3.12981,0.39629 5.79643,0.60448 5.34644,0.41759 7.53308,0.68098 9.46982,1.14117 2.80522,0.66658 4.26948,1.49605 5.49104,3.11001 0.80128,1.05867 1.18887,2.27933 1.28787,4.05378 0.045,0.81777 0.13499,1.43126 0.20099,1.36376 0.066,-0.0678 0.30899,-0.66898 0.53699,-1.33556 z"
         style="opacity:0;stroke-width:1.19996524"
         id="path3293" />
      <path
         inkscape:connector-curvature="0"
         d="m 305.95259,554.23955 c -0.33329,-0.033 -1.35596,-0.168 -2.27273,-0.29699 -11.87846,-1.69195 -21.77067,-10.62869 -24.68209,-22.30436 -1.20668,-4.83586 -1.16013,-10.45469 0.12495,-15.07186 1.43504,-5.15625 4.07028,-9.67862 7.76617,-13.32741 1.80235,-1.77895 2.70232,-2.51903 4.62587,-3.80299 7.87507,-5.25675 17.93348,-6.42132 26.86122,-3.11001 7.16079,2.65522 13.03162,7.96297 16.47852,14.89697 3.5339,7.10679 4.00489,15.80144 1.26297,23.29522 -1.54496,4.21788 -3.82189,7.79077 -6.9868,10.95568 -4.52387,4.52387 -10.10071,7.37979 -16.43653,8.41776 -1.68595,0.27599 -5.50424,0.47398 -6.7414,0.34799 z m 6.20742,-1.82095 c 1.41896,-0.20699 3.3059,-0.62698 4.44887,-0.98997 0.61798,-0.19799 0.59698,-0.35099 -0.33899,-2.32493 -0.77098,-1.62896 -1.45196,-2.54993 -4.52687,-6.09883 -2.89491,-3.3419 -4.14648,-4.90185 -5.25975,-6.55481 -1.80084,-2.67592 -2.34263,-4.17288 -2.24543,-6.20682 0.0825,-1.72495 0.72658,-3.14091 2.09034,-4.59886 0.52078,-0.55799 0.90357,-1.01097 0.85047,-1.01097 -0.31019,0 -2.24213,1.00797 -2.94171,1.53895 -1.15227,0.86998 -1.62025,1.41596 -2.18694,2.54993 -0.46948,0.94197 -0.49138,1.06497 -0.48838,2.72692 0.005,2.74792 0.72148,5.34284 2.99721,10.85068 1.76515,4.27488 1.95234,5.01286 2.16564,8.54376 0.0591,0.97797 0.17879,1.79694 0.27269,1.86294 0.22139,0.159 3.2639,-0.009 5.16285,-0.28799 z m -16.24783,-3.90289 c 0.89068,-2.10593 0.99207,-2.75992 1.55966,-10.0947 0.36659,-4.73387 0.69388,-6.8668 1.38476,-9.01474 0.55828,-1.73995 0.88377,-2.30394 1.92744,-3.3419 1.40036,-1.39196 3.02001,-2.02645 5.23815,-2.05075 l 1.14266,-0.0126 -0.78807,-0.37288 c -1.92355,-0.90988 -4.57127,-1.04067 -6.17832,-0.3048 -1.71085,0.78298 -3.6545,3.16101 -5.34525,6.53592 -0.41729,0.83397 -1.37336,2.98191 -2.12484,4.77586 -0.75118,1.79394 -1.52185,3.53089 -1.71265,3.86388 -0.46798,0.81298 -2.09004,2.90092 -3.11301,4.00789 l -0.83367,0.89997 0.32159,0.43499 c 0.40169,0.54298 2.18483,2.15394 3.485,3.14691 1.31606,1.00497 4.09758,2.66392 4.37387,2.60992 0.1218,-0.021 0.41999,-0.50998 0.66268,-1.08297 z m 32.72305,-4.67986 c 0.64798,-0.68698 1.63196,-1.87195 2.18694,-2.63092 1.13097,-1.54796 2.66092,-4.13388 2.58292,-4.37088 -0.078,-0.23099 -2.33993,-1.10397 -3.52789,-1.36196 -0.57599,-0.12599 -3.22791,-0.39899 -5.89483,-0.60898 -5.94583,-0.46799 -8.03677,-0.74698 -10.3797,-1.39496 -3.70789,-1.02297 -5.72774,-3.5849 -5.76913,-7.31379 l -0.0126,-1.14296 -0.37259,0.78597 c -0.91108,1.92595 -1.04697,4.55987 -0.31709,6.15282 1.11356,2.43293 4.79446,4.85986 11.54126,7.60778 3.72589,1.51496 5.08185,2.35194 7.58378,4.67087 0.49799,0.46499 0.97497,0.84897 1.05597,0.85197 0.081,0.003 0.67798,-0.55498 1.32296,-1.24496 z m -45.70367,-11.31867 c 1.76185,-0.81598 2.40113,-1.28696 6.30851,-4.64087 5.14995,-4.42397 7.36989,-6.02862 9.68912,-7.00539 0.84718,-0.35669 1.16337,-0.40559 2.62973,-0.40559 1.60225,0 1.71085,0.0213 2.81332,0.54778 0.73287,0.35009 1.51225,0.88948 2.15933,1.49486 0.55679,0.52078 1.01217,0.90057 1.01217,0.84387 0,-0.0567 -0.22889,-0.59308 -0.50878,-1.19186 -0.95097,-2.03394 -2.28414,-3.4343 -3.88519,-4.08078 -0.69508,-0.2808 -1.10997,-0.33449 -2.50013,-0.32399 -2.71042,0.0204 -4.90875,0.62488 -10.53029,2.89701 -1.95864,0.79138 -3.86779,1.52816 -4.24278,1.63705 -0.97737,0.2844 -2.54692,0.49979 -4.50767,0.61859 l -1.70449,0.10319 v 1.89235 c 0,2.42993 0.48278,5.51684 1.23279,7.87777 0.18611,0.58798 0.20471,0.58498 2.03436,-0.26399 z m 35.82496,-2.33093 c 2.00394,-0.48299 3.98088,-1.17297 7.38878,-2.57993 4.17588,-1.72495 4.92886,-1.91094 8.63375,-2.15394 l 1.55396,-0.10199 -0.003,-1.76035 c -0.006,-2.31804 -0.67198,-6.31392 -1.35896,-8.11987 l -0.147,-0.38219 -0.76197,0.29999 c -2.24994,0.88768 -3.19791,1.54766 -7.2358,5.04436 -3.3419,2.89401 -4.90485,4.14708 -6.55781,5.26005 -2.67292,1.79994 -4.16987,2.34293 -6.20382,2.24393 -1.73395,-0.081 -3.1409,-0.72298 -4.62286,-2.10894 -1.13997,-1.06497 -1.18197,-0.97797 -0.34499,0.69898 1.04097,2.07894 2.69092,3.5609 4.46687,4.01089 0.93597,0.23699 3.4499,0.069 5.19285,-0.35099 z m -2.98791,-5.13886 c 2.41493,-1.11206 4.59886,-4.36517 7.32878,-10.91728 1.87795,-4.50947 2.26794,-5.17095 4.66187,-7.89187 l 1.05297,-1.19667 -1.20597,-1.16006 c -2.06394,-1.98744 -6.37181,-4.94896 -7.01679,-4.82176 -0.276,0.0549 -1.01397,1.92624 -1.30497,3.3074 -0.12599,0.60238 -0.29999,1.92085 -0.38399,2.93002 -0.084,1.00917 -0.28499,3.437 -0.44698,5.39534 -0.55199,6.73871 -1.31996,9.61442 -3.04491,11.44077 -1.38296,1.46066 -2.65793,2.00994 -5.06086,2.17704 l -1.51795,0.10409 0.60598,0.27299 c 2.11494,0.95098 4.72786,1.09797 6.33282,0.35999 z m -5.42085,-1.96974 c 1.74595,-0.87357 2.96092,-2.05524 3.6929,-3.59719 0.35699,-0.75028 0.39598,-1.00647 0.39298,-2.57573 -0.003,-2.74732 -0.71998,-5.34134 -2.99691,-10.85009 -1.74895,-4.23197 -1.93794,-4.97535 -2.16594,-8.50625 l -0.099,-1.55314 h -1.56716 c -1.98534,0 -4.50137,0.34343 -6.7126,0.91629 -0.94978,0.24605 -1.75105,0.44735 -1.78045,0.44735 -0.30899,0 0.76378,2.45594 1.64305,3.76159 0.29189,0.43319 1.88755,2.36783 3.5459,4.29917 4.42127,5.14995 6.02622,7.36959 7.00419,9.68912 0.35699,0.84688 0.40499,1.16337 0.40499,2.62943 0,1.60225 -0.021,1.71115 -0.54598,2.81361 -0.35399,0.74038 -0.89098,1.51316 -1.51796,2.18124 -1.06497,1.13967 -0.97797,1.18287 0.70198,0.34469 z m -1.49995,-1.24856 c 0.35399,-1.02447 0.41998,-1.47026 0.42898,-2.87872 0.009,-1.50656 -0.03,-1.75105 -0.40198,-2.54273 -1.14357,-2.44162 -4.66217,-4.77436 -11.25598,-7.46318 -4.02348,-1.64065 -4.63336,-1.99794 -7.18359,-4.20888 l -1.57705,-1.36736 -1.23057,1.27587 c -0.67678,0.70168 -1.66915,1.85334 -2.20554,2.55952 -1.06556,1.40306 -2.72782,4.04988 -2.72782,4.34328 0,0.21719 2.01745,1.02177 3.37041,1.34456 0.52138,0.12419 3.12981,0.39629 5.79643,0.60448 5.34644,0.41759 7.53308,0.68098 9.46982,1.14117 2.80522,0.66658 4.26948,1.49605 5.49104,3.11001 0.80128,1.05867 1.18887,2.27933 1.28787,4.05378 0.045,0.81777 0.13499,1.43126 0.20099,1.36376 0.066,-0.0678 0.30899,-0.66898 0.53699,-1.33556 z"
         style="opacity:0;stroke-width:1.19996524"
         id="path3295" />
      <path
         inkscape:connector-curvature="0"
         d="m 305.95259,554.23955 c -0.33329,-0.033 -1.35596,-0.168 -2.27273,-0.29699 -11.87846,-1.69195 -21.77067,-10.62869 -24.68209,-22.30436 -1.20668,-4.83586 -1.16013,-10.45469 0.12495,-15.07186 1.43504,-5.15625 4.07028,-9.67862 7.76617,-13.32741 1.80235,-1.77895 2.70232,-2.51903 4.62587,-3.80299 7.87507,-5.25675 17.93348,-6.42132 26.86122,-3.11001 7.16079,2.65522 13.03162,7.96297 16.47852,14.89697 3.5339,7.10679 4.00489,15.80144 1.26297,23.29522 -1.54496,4.21788 -3.82189,7.79077 -6.9868,10.95568 -4.52387,4.52387 -10.10071,7.37979 -16.43653,8.41776 -1.68595,0.27599 -5.50424,0.47398 -6.7414,0.34799 z m 6.20742,-1.82095 c 1.41896,-0.20699 3.3059,-0.62698 4.44887,-0.98997 0.61798,-0.19799 0.59698,-0.35099 -0.33899,-2.32493 -0.77098,-1.62896 -1.45196,-2.54993 -4.52687,-6.09883 -2.89491,-3.3419 -4.14648,-4.90185 -5.25975,-6.55481 -1.80084,-2.67592 -2.34263,-4.17288 -2.24543,-6.20682 0.0825,-1.72495 0.72658,-3.14091 2.09034,-4.59886 0.52078,-0.55799 0.90357,-1.01097 0.85047,-1.01097 -0.31019,0 -2.24213,1.00797 -2.94171,1.53895 -1.15227,0.86998 -1.62025,1.41596 -2.18694,2.54993 -0.46948,0.94197 -0.49138,1.06497 -0.48838,2.72692 0.005,2.74792 0.72148,5.34284 2.99721,10.85068 1.76515,4.27488 1.95234,5.01286 2.16564,8.54376 0.0591,0.97797 0.17879,1.79694 0.27269,1.86294 0.22139,0.159 3.2639,-0.009 5.16285,-0.28799 z m -16.24783,-3.90289 c 0.89068,-2.10593 0.99207,-2.75992 1.55966,-10.0947 0.36659,-4.73387 0.69388,-6.8668 1.38476,-9.01474 0.55828,-1.73995 0.88377,-2.30394 1.92744,-3.3419 1.40036,-1.39196 3.02001,-2.02645 5.23815,-2.05075 l 1.14266,-0.0126 -0.78807,-0.37288 c -1.92355,-0.90988 -4.57127,-1.04067 -6.17832,-0.3048 -1.71085,0.78298 -3.6545,3.16101 -5.34525,6.53592 -0.41729,0.83397 -1.37336,2.98191 -2.12484,4.77586 -0.75118,1.79394 -1.52185,3.53089 -1.71265,3.86388 -0.46798,0.81298 -2.09004,2.90092 -3.11301,4.00789 l -0.83367,0.89997 0.32159,0.43499 c 0.40169,0.54298 2.18483,2.15394 3.485,3.14691 1.31606,1.00497 4.09758,2.66392 4.37387,2.60992 0.1218,-0.021 0.41999,-0.50998 0.66268,-1.08297 z m 32.72305,-4.67986 c 0.64798,-0.68698 1.63196,-1.87195 2.18694,-2.63092 1.13097,-1.54796 2.66092,-4.13388 2.58292,-4.37088 -0.078,-0.23099 -2.33993,-1.10397 -3.52789,-1.36196 -0.57599,-0.12599 -3.22791,-0.39899 -5.89483,-0.60898 -5.94583,-0.46799 -8.03677,-0.74698 -10.3797,-1.39496 -3.70789,-1.02297 -5.72774,-3.5849 -5.76913,-7.31379 l -0.0126,-1.14296 -0.37259,0.78597 c -0.91108,1.92595 -1.04697,4.55987 -0.31709,6.15282 1.11356,2.43293 4.79446,4.85986 11.54126,7.60778 3.72589,1.51496 5.08185,2.35194 7.58378,4.67087 0.49799,0.46499 0.97497,0.84897 1.05597,0.85197 0.081,0.003 0.67798,-0.55498 1.32296,-1.24496 z m -45.70367,-11.31867 c 1.76185,-0.81598 2.40113,-1.28696 6.30851,-4.64087 5.14995,-4.42397 7.36989,-6.02862 9.68912,-7.00539 0.84718,-0.35669 1.16337,-0.40559 2.62973,-0.40559 1.60225,0 1.71085,0.0213 2.81332,0.54778 0.73287,0.35009 1.51225,0.88948 2.15933,1.49486 0.55679,0.52078 1.01217,0.90057 1.01217,0.84387 0,-0.0567 -0.22889,-0.59308 -0.50878,-1.19186 -0.95097,-2.03394 -2.28414,-3.4343 -3.88519,-4.08078 -0.69508,-0.2808 -1.10997,-0.33449 -2.50013,-0.32399 -2.71042,0.0204 -4.90875,0.62488 -10.53029,2.89701 -1.95864,0.79138 -3.86779,1.52816 -4.24278,1.63705 -0.97737,0.2844 -2.54692,0.49979 -4.50767,0.61859 l -1.70449,0.10319 v 1.89235 c 0,2.42993 0.48278,5.51684 1.23279,7.87777 0.18611,0.58798 0.20471,0.58498 2.03436,-0.26399 z m 35.82496,-2.33093 c 2.00394,-0.48299 3.98088,-1.17297 7.38878,-2.57993 4.17588,-1.72495 4.92886,-1.91094 8.63375,-2.15394 l 1.55396,-0.10199 -0.003,-1.76035 c -0.006,-2.31804 -0.67198,-6.31392 -1.35896,-8.11987 l -0.147,-0.38219 -0.76197,0.29999 c -2.24994,0.88768 -3.19791,1.54766 -7.2358,5.04436 -3.3419,2.89401 -4.90485,4.14708 -6.55781,5.26005 -2.67292,1.79994 -4.16987,2.34293 -6.20382,2.24393 -1.73395,-0.081 -3.1409,-0.72298 -4.62286,-2.10894 -1.13997,-1.06497 -1.18197,-0.97797 -0.34499,0.69898 1.04097,2.07894 2.69092,3.5609 4.46687,4.01089 0.93597,0.23699 3.4499,0.069 5.19285,-0.35099 z m -2.98791,-5.13886 c 2.41493,-1.11206 4.59886,-4.36517 7.32878,-10.91728 1.87795,-4.50947 2.26794,-5.17095 4.66187,-7.89187 l 1.05297,-1.19667 -1.20597,-1.16006 c -2.06394,-1.98744 -6.37181,-4.94896 -7.01679,-4.82176 -0.276,0.0549 -1.01397,1.92624 -1.30497,3.3074 -0.12599,0.60238 -0.29999,1.92085 -0.38399,2.93002 -0.084,1.00917 -0.28499,3.437 -0.44698,5.39534 -0.55199,6.73871 -1.31996,9.61442 -3.04491,11.44077 -1.38296,1.46066 -2.65793,2.00994 -5.06086,2.17704 l -1.51795,0.10409 0.60598,0.27299 c 2.11494,0.95098 4.72786,1.09797 6.33282,0.35999 z m -5.42085,-1.96974 c 1.74595,-0.87357 2.96092,-2.05524 3.6929,-3.59719 0.35699,-0.75028 0.39598,-1.00647 0.39298,-2.57573 -0.003,-2.74732 -0.71998,-5.34134 -2.99691,-10.85009 -1.74895,-4.23197 -1.93794,-4.97535 -2.16594,-8.50625 l -0.099,-1.55314 h -1.56716 c -1.98534,0 -4.50137,0.34343 -6.7126,0.91629 -0.94978,0.24605 -1.75105,0.44735 -1.78045,0.44735 -0.30899,0 0.76378,2.45594 1.64305,3.76159 0.29189,0.43319 1.88755,2.36783 3.5459,4.29917 4.42127,5.14995 6.02622,7.36959 7.00419,9.68912 0.35699,0.84688 0.40499,1.16337 0.40499,2.62943 0,1.60225 -0.021,1.71115 -0.54598,2.81361 -0.35399,0.74038 -0.89098,1.51316 -1.51796,2.18124 -1.06497,1.13967 -0.97797,1.18287 0.70198,0.34469 z m -1.49995,-1.24856 c 0.35399,-1.02447 0.41998,-1.47026 0.42898,-2.87872 0.009,-1.50656 -0.03,-1.75105 -0.40198,-2.54273 -1.14357,-2.44162 -4.66217,-4.77436 -11.25598,-7.46318 -4.02348,-1.64065 -4.63336,-1.99794 -7.18359,-4.20888 l -1.57705,-1.36736 -1.23057,1.27587 c -0.67678,0.70168 -1.66915,1.85334 -2.20554,2.55952 -1.06556,1.40306 -2.72782,4.04988 -2.72782,4.34328 0,0.21719 2.01745,1.02177 3.37041,1.34456 0.52138,0.12419 3.12981,0.39629 5.79643,0.60448 5.34644,0.41759 7.53308,0.68098 9.46982,1.14117 2.80522,0.66658 4.26948,1.49605 5.49104,3.11001 0.80128,1.05867 1.18887,2.27933 1.28787,4.05378 0.045,0.81777 0.13499,1.43126 0.20099,1.36376 0.066,-0.0678 0.30899,-0.66898 0.53699,-1.33556 z"
         style="opacity:0;stroke-width:1.19996524"
         id="path3297" />
      <use
         x="0"
         y="0"
         width="200"
         height="200"
         transform="matrix(0.70711,0.70711,-0.70711,0.70711,460.80201,-64.286439)"
         xlink:href="#use3230"
         inkscape:transform-center-x="-18.731992"
         inkscape:transform-center-y="24.685164"
         id="use3341" />
      <use
         x="0"
         y="0"
         width="200"
         height="200"
         transform="rotate(90,307.99928,524.09327)"
         xlink:href="#use3230"
         inkscape:transform-center-x="2.5437072"
         inkscape:transform-center-y="34.641443"
         id="use3343" />
      <use
         x="0"
         y="0"
         width="200"
         height="200"
         transform="matrix(-0.70711,0.70711,-0.70711,-0.70711,896.37899,676.8963)"
         xlink:href="#use3230"
         inkscape:transform-center-x="24.685166"
         inkscape:transform-center-y="18.731991"
         id="use3345" />
      <use
         x="0"
         y="0"
         width="200"
         height="200"
         transform="rotate(180,307.99913,524.09342)"
         xlink:href="#use3230"
         inkscape:transform-center-x="34.641447"
         inkscape:transform-center-y="-2.5437076"
         id="use3347" />
      <use
         x="0"
         y="0"
         width="200"
         height="200"
         transform="matrix(-0.70711,-0.70711,0.70711,-0.70711,155.19625,1112.4763)"
         xlink:href="#use3230"
         inkscape:transform-center-x="18.731994"
         inkscape:transform-center-y="-24.685146"
         id="use3349" />
      <use
         x="0"
         y="0"
         width="200"
         height="200"
         transform="rotate(-90,307.99928,524.09327)"
         xlink:href="#use3230"
         inkscape:transform-center-x="-2.5437062"
         inkscape:transform-center-y="-34.641447"
         id="use3351" />
      <use
         x="0"
         y="0"
         width="200"
         height="200"
         transform="matrix(0.70711,-0.70711,0.70711,0.70711,-280.38073,371.29054)"
         xlink:href="#use3230"
         inkscape:transform-center-x="-24.685164"
         inkscape:transform-center-y="-18.731995"
         id="use3353" />
      <circle
         r="29.99913"
         cy="524.3634"
         cx="307.99915"
         style="fill:url(#radialGradient3363);stroke-width:0.29999131"
         id="path3355" />
    </g>
  </g>
  <metadata
     id="metadata29">
    <rdf:RDF>
      <cc:Work>
        <dc:format>image/svg+xml</dc:format>
        <dc:type
           rdf:resource="http://purl.org/dc/dcmitype/StillImage" />
        <cc:license
           rdf:resource="http://creativecommons.org/publicdomain/zero/1.0/" />
        <dc:publisher>
          <cc:Agent
             rdf:about="http://openclipart.org/">
            <dc:title>Openclipart</dc:title>
          </cc:Agent>
        </dc:publisher>
        <dc:title>Peppermint Candy</dc:title>
        <dc:date>2008-10-13T03:45:43</dc:date>
        <dc:description>Circular Peppermint Candy</dc:description>
        <dc:source>https://openclipart.org/detail/19571/peppermint-candy-by-bluefrog23</dc:source>
        <dc:creator>
          <cc:Agent>
            <dc:title>bluefrog23</dc:title>
          </cc:Agent>
        </dc:creator>
        <dc:subject>
          <rdf:Bag>
            <rdf:li>candy</rdf:li>
            <rdf:li>christmas</rdf:li>
            <rdf:li>peppermint</rdf:li>
          </rdf:Bag>
        </dc:subject>
      </cc:Work>
      <cc:License
         rdf:about="http://creativecommons.org/publicdomain/zero/1.0/">
        <cc:permits
           rdf:resource="http://creativecommons.org/ns#Reproduction" />
        <cc:permits
           rdf:resource="http://creativecommons.org/ns#Distribution" />
        <cc:permits
           rdf:resource="http://creativecommons.org/ns#DerivativeWorks" />
      </cc:License>
    </rdf:RDF>
  </metadata>
</svg>
