<?xml version="1.0" encoding="UTF-8" standalone="no"?>
<!DOCTYPE svg PUBLIC "-//W3C//DTD SVG 1.1//EN"
 "http://www.w3.org/Graphics/SVG/1.1/DTD/svg11.dtd">
<!-- Generated by graphviz version 2.38.0 (20140413.2041)
 -->
<!-- Title: G Pages: 1 -->
<svg width="383pt" height="312pt"
 viewBox="0.00 0.00 382.69 312.00" xmlns="http://www.w3.org/2000/svg" xmlns:xlink="http://www.w3.org/1999/xlink">
<g id="graph0" class="graph" transform="scale(1 1) rotate(0) translate(4 308)">
<title>G</title>
<polygon fill="white" stroke="none" points="-4,4 -4,-308 378.687,-308 378.687,4 -4,4"/>
<g id="clust1" class="cluster"><title>cluster_Global</title>
<path fill="none" stroke="gray" d="M217.687,-8C217.687,-8 354.687,-8 354.687,-8 360.687,-8 366.687,-14 366.687,-20 366.687,-20 366.687,-284 366.687,-284 366.687,-290 360.687,-296 354.687,-296 354.687,-296 217.687,-296 217.687,-296 211.687,-296 205.687,-290 205.687,-284 205.687,-284 205.687,-20 205.687,-20 205.687,-14 211.687,-8 217.687,-8"/>
<text text-anchor="middle" x="286.187" y="-283.2" font-family="Times,serif" font-size="11.00" fill="gray">Global</text>
</g>
<!-- \\ids -->
<g id="node1" class="node"><title>\\ids</title>
<polygon fill="none" stroke="black" points="313.187,-268 259.187,-268 259.187,-232 313.187,-232 313.187,-268"/>
<text text-anchor="middle" x="286.187" y="-247.2" font-family="Courier,monospace" font-size="11.00">ids</text>
</g>
<!-- \\page_renderer -->
<g id="node2" class="node"><title>\\page_renderer</title>
<polygon fill="none" stroke="black" points="338.187,-214 234.187,-214 234.187,-178 338.187,-178 338.187,-214"/>
<text text-anchor="middle" x="286.187" y="-193.2" font-family="Courier,monospace" font-size="11.00">page_renderer</text>
</g>
<!-- \\Slimdown -->
<g id="node3" class="node"><title>\\Slimdown</title>
<polygon fill="none" stroke="black" points="321.687,-160 250.687,-160 250.687,-124 321.687,-124 321.687,-160"/>
<text text-anchor="middle" x="286.187" y="-139.2" font-family="Courier,monospace" font-size="11.00">Slimdown</text>
</g>
<!-- \\PeppermintParsedown -->
<g id="node4" class="node"><title>\\PeppermintParsedown</title>
<polygon fill="none" stroke="black" points="358.687,-106 213.687,-106 213.687,-70 358.687,-70 358.687,-106"/>
<text text-anchor="middle" x="286.187" y="-85.2" font-family="Courier,monospace" font-size="11.00">PeppermintParsedown</text>
</g>
<!-- \\ParsedownExtra -->
<g id="node6" class="node"><title>\\ParsedownExtra</title>
<ellipse fill="none" stroke="black" cx="70.8437" cy="-88" rx="70.6878" ry="18"/>
<text text-anchor="middle" x="70.8437" y="-84.3" font-family="Times,serif" font-size="14.00" fill="gray">\ParsedownExtra</text>
</g>
<!-- \\PeppermintParsedown&#45;&gt;\\ParsedownExtra -->
<g id="edge1" class="edge"><title>\\PeppermintParsedown&#45;&gt;\\ParsedownExtra</title>
<path fill="none" stroke="black" d="M213.554,-88C193.774,-88 172.187,-88 151.96,-88"/>
<polygon fill="none" stroke="black" points="151.84,-84.5001 141.84,-88 151.84,-91.5001 151.84,-84.5001"/>
</g>
<!-- \\search -->
<g id="node5" class="node"><title>\\search</title>
<polygon fill="none" stroke="black" points="314.687,-52 257.687,-52 257.687,-16 314.687,-16 314.687,-52"/>
<text text-anchor="middle" x="286.187" y="-31.2" font-family="Courier,monospace" font-size="11.00">search</text>
</g>
</g>
</svg>
