<?xml version="1.0" encoding="UTF-8" standalone="no"?>
<!DOCTYPE svg PUBLIC "-//W3C//DTD SVG 1.1//EN"
 "http://www.w3.org/Graphics/SVG/1.1/DTD/svg11.dtd">
<!-- Generated by graphviz version 2.40.1 (20161225.0304)
 -->
<!-- Title: G Pages: 1 -->
<svg width="383pt" height="312pt"
 viewBox="0.00 0.00 382.69 312.00" xmlns="http://www.w3.org/2000/svg" xmlns:xlink="http://www.w3.org/1999/xlink">
<g id="graph0" class="graph" transform="scale(1 1) rotate(0) translate(4 308)">
<title>G</title>
<polygon fill="#ffffff" stroke="transparent" points="-4,4 -4,-308 378.6874,-308 378.6874,4 -4,4"/>
<g id="clust1" class="cluster">
<title>cluster_Global</title>
<path fill="none" stroke="#c0c0c0" d="M217.6874,-8C217.6874,-8 354.6874,-8 354.6874,-8 360.6874,-8 366.6874,-14 366.6874,-20 366.6874,-20 366.6874,-284 366.6874,-284 366.6874,-290 360.6874,-296 354.6874,-296 354.6874,-296 217.6874,-296 217.6874,-296 211.6874,-296 205.6874,-290 205.6874,-284 205.6874,-284 205.6874,-20 205.6874,-20 205.6874,-14 211.6874,-8 217.6874,-8"/>
<text text-anchor="middle" x="286.1874" y="-283.2" font-family="Times,serif" font-size="11.00" fill="#c0c0c0">Global</text>
</g>
<!-- \\page_renderer -->
<g id="node1" class="node">
<title>\\page_renderer</title>
<polygon fill="none" stroke="#000000" points="338.1874,-268 234.1874,-268 234.1874,-232 338.1874,-232 338.1874,-268"/>
<text text-anchor="middle" x="286.1874" y="-247.2" font-family="Courier,monospace" font-size="11.00" fill="#000000">page_renderer</text>
</g>
<!-- \\Slimdown -->
<g id="node2" class="node">
<title>\\Slimdown</title>
<polygon fill="none" stroke="#000000" points="321.6874,-214 250.6874,-214 250.6874,-178 321.6874,-178 321.6874,-214"/>
<text text-anchor="middle" x="286.1874" y="-193.2" font-family="Courier,monospace" font-size="11.00" fill="#000000">Slimdown</text>
</g>
<!-- \\ids -->
<g id="node3" class="node">
<title>\\ids</title>
<polygon fill="none" stroke="#000000" points="313.1874,-160 259.1874,-160 259.1874,-124 313.1874,-124 313.1874,-160"/>
<text text-anchor="middle" x="286.1874" y="-139.2" font-family="Courier,monospace" font-size="11.00" fill="#000000">ids</text>
</g>
<!-- \\PeppermintParsedown -->
<g id="node4" class="node">
<title>\\PeppermintParsedown</title>
<polygon fill="none" stroke="#000000" points="358.6874,-106 213.6874,-106 213.6874,-70 358.6874,-70 358.6874,-106"/>
<text text-anchor="middle" x="286.1874" y="-85.2" font-family="Courier,monospace" font-size="11.00" fill="#000000">PeppermintParsedown</text>
</g>
<!-- \\ParsedownExtra -->
<g id="node6" class="node">
<title>\\ParsedownExtra</title>
<ellipse fill="none" stroke="#000000" cx="70.8437" cy="-88" rx="70.6878" ry="18"/>
<text text-anchor="middle" x="70.8437" y="-84.3" font-family="Times,serif" font-size="14.00" fill="#c0c0c0">\ParsedownExtra</text>
</g>
<!-- \\PeppermintParsedown&#45;&gt;\\ParsedownExtra -->
<g id="edge1" class="edge">
<title>\\PeppermintParsedown&#45;&gt;\\ParsedownExtra</title>
<path fill="none" stroke="#000000" d="M213.5821,-88C193.8401,-88 172.3325,-88 152.1431,-88"/>
<polygon fill="none" stroke="#000000" points="152.0379,-84.5001 142.0379,-88 152.0378,-91.5001 152.0379,-84.5001"/>
</g>
<!-- \\search -->
<g id="node5" class="node">
<title>\\search</title>
<polygon fill="none" stroke="#000000" points="314.6874,-52 257.6874,-52 257.6874,-16 314.6874,-16 314.6874,-52"/>
<text text-anchor="middle" x="286.1874" y="-31.2" font-family="Courier,monospace" font-size="11.00" fill="#000000">search</text>
</g>
</g>
</svg>
